<group>
loop_mode=loop_continuous
amp_veltrack=0
group_volume=10
ampeg_release=0.2
fil_type=lpf_2p
fil_keycenter=36
cutoff=800
fil_keytrack=70

<region>
sample=../Samples/Organ/great-stoppeddiapason8ft/036-C.flac
loop_start=81982
loop_end=219505
lokey=36
hikey=37
pitch_keycenter=36
offset=6000
ampeg_attack=0.02

<region>
sample=../Samples/Organ/great-stoppeddiapason8ft/039-D#.flac
loop_start=74992
loop_end=211639
lokey=38
hikey=40
pitch_keycenter=39
offset=7000
ampeg_attack=0.02

<region>
sample=../Samples/Organ/great-stoppeddiapason8ft/042-F#.flac
loop_start=111246
loop_end=287170
lokey=41
hikey=43
pitch_keycenter=42
offset=3000
ampeg_attack=0.08

<region>
sample=../Samples/Organ/great-stoppeddiapason8ft/045-A.flac
loop_start=127443
loop_end=283393
lokey=44
hikey=46
pitch_keycenter=45

<region>
sample=../Samples/Organ/great-stoppeddiapason8ft/048-C.flac
loop_start=156922
loop_end=250648
lokey=47
hikey=49
pitch_keycenter=48

<region>
sample=../Samples/Organ/great-stoppeddiapason8ft/051-D#.flac
loop_start=102334
loop_end=202403
lokey=50
hikey=52
pitch_keycenter=51

<region>
sample=../Samples/Organ/great-stoppeddiapason8ft/054-F#.flac
loop_start=68811
loop_end=163925
lokey=53
hikey=55
pitch_keycenter=54

<region>
sample=../Samples/Organ/great-stoppeddiapason8ft/057-A.flac
loop_start=53070
loop_end=140065
lokey=56
hikey=58
pitch_keycenter=57

<region>
sample=../Samples/Organ/great-stoppeddiapason8ft/060-C.flac
loop_start=62334
loop_end=204428
lokey=59
hikey=61
pitch_keycenter=60

<region>
sample=../Samples/Organ/great-stoppeddiapason8ft/063-D#.flac
loop_start=128966
loop_end=202395
lokey=62
hikey=64
pitch_keycenter=63

<region>
sample=../Samples/Organ/great-stoppeddiapason8ft/066-F#.flac
loop_start=55845
loop_end=203888
lokey=65
hikey=67
pitch_keycenter=66

<region>
sample=../Samples/Organ/great-stoppeddiapason8ft/069-A.flac
loop_start=120325
loop_end=231884
lokey=68
hikey=70
pitch_keycenter=69
volume=1

<region>
sample=../Samples/Organ/great-stoppeddiapason8ft/072-C.flac
loop_start=145896
loop_end=254366
lokey=71
hikey=73
pitch_keycenter=72
volume=-2

<region>
sample=../Samples/Organ/great-stoppeddiapason8ft/075-D#.flac
loop_start=113998
loop_end=204789
lokey=74
hikey=76
pitch_keycenter=75
volume=2

<region>
sample=../Samples/Organ/great-stoppeddiapason8ft/078-F#.flac
loop_start=133593
loop_end=336343
lokey=77
hikey=79
pitch_keycenter=78
volume=2

<region>
sample=../Samples/Organ/great-stoppeddiapason8ft/081-A.flac
loop_start=129468
loop_end=268700
lokey=80
hikey=82
pitch_keycenter=81

<region>
sample=../Samples/Organ/great-stoppeddiapason8ft/084-C.flac
loop_start=97219
loop_end=243445
lokey=83
hikey=85
pitch_keycenter=84

<region>
sample=../Samples/Organ/great-stoppeddiapason8ft/087-D#.flac
loop_start=90719
loop_end=288275
lokey=86
hikey=88
pitch_keycenter=87

<region>
sample=../Samples/Organ/great-stoppeddiapason8ft/090-F#.flac
loop_start=98785
loop_end=275524
lokey=89
hikey=91
pitch_keycenter=90
volume=1


// Releases

<group>
loop_mode=one_shot
trigger=release_key
amp_veltrack=0
group_volume=10
ampeg_attack=0.05
fil_type=lpf_2p
fil_keycenter=36
cutoff=1000
fil_keytrack=100

<region>
sample=../Samples/Organ/great-stoppeddiapason8ft/036-C.flac
offset=279471
lokey=36
hikey=37
pitch_keycenter=36

<region>
sample=../Samples/Organ/great-stoppeddiapason8ft/039-D#.flac
offset=286260
lokey=38
hikey=40
pitch_keycenter=39

<region>
sample=../Samples/Organ/great-stoppeddiapason8ft/042-F#.flac
offset=350903
lokey=41
hikey=43
pitch_keycenter=42

<region>
sample=../Samples/Organ/great-stoppeddiapason8ft/045-A.flac
offset=325490
lokey=44
hikey=46
pitch_keycenter=45

<region>
sample=../Samples/Organ/great-stoppeddiapason8ft/048-C.flac
offset=343653
lokey=47
hikey=49
pitch_keycenter=48

<region>
sample=../Samples/Organ/great-stoppeddiapason8ft/051-D#.flac
offset=366047
lokey=50
hikey=52
pitch_keycenter=51

<region>
sample=../Samples/Organ/great-stoppeddiapason8ft/054-F#.flac
offset=340975
lokey=53
hikey=55
pitch_keycenter=54

<region>
sample=../Samples/Organ/great-stoppeddiapason8ft/057-A.flac
offset=349499
lokey=56
hikey=58
pitch_keycenter=57

<region>
sample=../Samples/Organ/great-stoppeddiapason8ft/060-C.flac
offset=333206
lokey=59
hikey=61
pitch_keycenter=60

<region>
sample=../Samples/Organ/great-stoppeddiapason8ft/063-D#.flac
offset=339606
lokey=62
hikey=64
pitch_keycenter=63

<region>
sample=../Samples/Organ/great-stoppeddiapason8ft/066-F#.flac
offset=335812
lokey=65
hikey=67
pitch_keycenter=66

<region>
sample=../Samples/Organ/great-stoppeddiapason8ft/069-A.flac
offset=330989
lokey=68
hikey=70
pitch_keycenter=69
volume=1

<region>
sample=../Samples/Organ/great-stoppeddiapason8ft/072-C.flac
offset=334977
lokey=71
hikey=73
pitch_keycenter=72
volume=-2

<region>
sample=../Samples/Organ/great-stoppeddiapason8ft/075-D#.flac
offset=345984
lokey=74
hikey=76
pitch_keycenter=75
volume=2

<region>
sample=../Samples/Organ/great-stoppeddiapason8ft/078-F#.flac
offset=357237
lokey=77
hikey=79
pitch_keycenter=78
volume=2

<region>
sample=../Samples/Organ/great-stoppeddiapason8ft/081-A.flac
offset=323527
lokey=80
hikey=82
pitch_keycenter=81

<region>
sample=../Samples/Organ/great-stoppeddiapason8ft/084-C.flac
offset=333707
lokey=83
hikey=85
pitch_keycenter=84

<region>
sample=../Samples/Organ/great-stoppeddiapason8ft/087-D#.flac
offset=336260
lokey=86
hikey=88
pitch_keycenter=87

<region>
sample=../Samples/Organ/great-stoppeddiapason8ft/090-F#.flac
offset=319333
lokey=89
hikey=91
pitch_keycenter=90
volume=1
